# xmcd
#
# Track frame offsets:
#	150
#	20992
#	37299
#	54282
#	75985
#	87576
#	105367
#	119895
#	138546
#	148948
#	165188
#	180543
#	193835
#
# Disc length: 2834 seconds
#
# Revision: 0
# Processed by: cddbd v1.5.2PL0 Copyright (c) Steve Scherf et al.
# Submitted via: EZCDAudioConverter 2.1.7.1
#
DISCID=b90b100d
DTITLE=Crowded House - Afterglow 1/2
DYEAR=1900
DGENRE=
TTITLE0=I Am In Love
TTITLE1=Sacred Cow
TTITLE2=You Can Touch
TTITLE3=Help Is Coming
TTITLE4=I Love You Dawn
TTITLE5=Dr. Livingstone
TTITLE6=My Telly's Gone Bung
TTITLE7=Private Universe
TTITLE8=Lester
TTITLE9=Anyone Can Tell
TTITLE10=Recurring Dream
TTITLE11=Left Hand
TTITLE12=Time Immemorial
EXTD=
EXTT0=
EXTT1=
EXTT2=
EXTT3=
EXTT4=
EXTT5=
EXTT6=
EXTT7=
EXTT8=
EXTT9=
EXTT10=
EXTT11=
EXTT12=
PLAYORDER=
